<svg xmlns="http://www.w3.org/2000/svg" width="126.765" height="18.695" viewBox="0 0 126.765 18.695"><defs><style>.a{fill:#12284c;}</style></defs><path class="a" d="M932.9,573.423h-3.776c-.21.01-.273.069-.283.281v17.8c.006.193.1.259.3.267H932.9a.257.257,0,0,0,.275-.267V573.708c-.007-.19-.067-.277-.275-.285" transform="translate(-891.065 -573.423)"/><path class="a" d="M1023.8,588.842l.293-4.037a4.219,4.219,0,0,0-.573-.036,4.423,4.423,0,0,0-2.793.949l-.013.011h-.121v-.607c-.007-.188-.073-.3-.337-.306h-3.76a.274.274,0,0,0-.308.3c0,.292,0,12.428,0,12.764h0c0,.167.11.265.309.269h3.76c.288-.012.327-.056.337-.269v-6.638c.012-2.315,2.8-2.395,3.207-2.4" transform="translate(-940.167 -579.802)"/><path class="a" d="M1040.479,584.173a6.994,6.994,0,1,0,6.995,6.994,6.985,6.985,0,0,0-6.995-6.994m0,9.57a2.575,2.575,0,1,1,2.575-2.576,2.565,2.565,0,0,1-2.575,2.576" transform="translate(-949.893 -579.466)"/><path class="a" d="M1078.908,597.677a.349.349,0,0,1-.3.311h-3.936c-.233,0-.249-.137-.255-.311V590.7c0-.836-.11-1.883-1.35-1.886-1.14,0-1.377,1.043-1.378,1.886v7.016c-.006.2-.079.26-.262.267h-3.953c-.206,0-.275-.11-.279-.267V584.949c0-.162.067-.286.234-.289h3.989a.267.267,0,0,1,.271.3v.781l.087-.086a3.884,3.884,0,0,1,3.2-1.166c1.819.006,3.931.977,3.932,3.747Z" transform="translate(-968.843 -579.642)"/><path class="a" d="M1102.118,597.923a.26.26,0,0,1-.28.267h-4.04c-.256,0-.331-.114-.337-.267V585.159a.321.321,0,0,1,.337-.314h3.969c.291,0,.344.16.35.314Z" transform="translate(-985.86 -579.844)"/><path class="a" d="M1097.464,575.2a.321.321,0,0,1,.336-.315h3.97c.291.008.344.161.351.315V578a.262.262,0,0,1-.28.269H1097.8c-.257-.007-.33-.114-.336-.269Z" transform="translate(-985.861 -574.246)"/><path class="a" d="M850.1,588.631a.421.421,0,0,0,.009-.076c0-.15-.136-.171-.22-.173h-1.5a.463.463,0,0,1-.327-.117.45.45,0,0,1-.12-.326V583.43a.348.348,0,0,1,.348-.374h1.639c.208-.008.262-.085.27-.257v-3.316c-.007-.185-.066-.293-.265-.3H848.3a.385.385,0,0,1-.282-.08.368.368,0,0,1-.08-.273v-3.878c-.007-.167-.063-.213-.16-.218a.4.4,0,0,0-.2.062s-3.5,2.443-3.692,2.552c-.168.1-.227.237-.231.507h0l0,.979a.342.342,0,0,1-.088.262.369.369,0,0,1-.269.085l-.485,0c-.194,0-.257.114-.263.294V582.8c.006.179.079.249.26.254l.493,0h0a.349.349,0,0,1,.274.094.4.4,0,0,1,.077.268v7.342c0,1.053.928,1.73,2.346,1.731,1.261,0,2.719.009,2.831.009a.58.58,0,0,0,.525-.454s.658-3.1.73-3.422" transform="translate(-842.557 -574.161)"/><path class="a" d="M1002.538,592.052s.659-3.1.731-3.422a.322.322,0,0,0,.008-.076c0-.151-.136-.171-.22-.173h-1.5a.46.46,0,0,1-.327-.117.447.447,0,0,1-.119-.326c0-.283,0-4.508,0-4.508a.349.349,0,0,1,.348-.373h1.408c.207-.009.262-.085.269-.258v-3.372c-.005-.173-.087-.245-.3-.253h-1.362a.393.393,0,0,1-.281-.075.352.352,0,0,1-.082-.268v-3.878c-.005-.167-.063-.213-.16-.218a.415.415,0,0,0-.2.062s-3.5,2.442-3.691,2.552c-.168.1-.227.236-.231.505v.98a.331.331,0,0,1-.09.259.388.388,0,0,1-.268.08l-.553,0a.29.29,0,0,0-.311.3V582.8c.007.179.078.248.259.254l.61,0a.357.357,0,0,1,.277.094.4.4,0,0,1,.075.269v7.34c0,1.055,1.16,1.741,2.578,1.742h2.6a.579.579,0,0,0,.524-.454" transform="translate(-928.604 -574.161)"/><path class="a" d="M979.586,588.74a7.387,7.387,0,0,1,1.593.233c.128.031.171-.055.171-.165l0-3.705c0-.156-.011-.227-.177-.308a6.673,6.673,0,0,0-2.405-.309,6.89,6.89,0,0,0,.128,13.779,6.189,6.189,0,0,0,2.167-.368c.176-.077.292-.127.292-.273v-3.716c0-.13-.041-.191-.2-.16a9.9,9.9,0,0,1-1.54.146,3.617,3.617,0,0,1-.409-.021,2.576,2.576,0,0,1-2.544-2.573,2.517,2.517,0,0,1,2.554-2.539,3.086,3.086,0,0,1,.371-.02" transform="translate(-915.32 -579.642)"/><path class="a" d="M1118.3,588.74a7.4,7.4,0,0,1,1.592.233c.128.031.171-.055.171-.165l0-3.705c0-.156-.013-.227-.178-.308a6.668,6.668,0,0,0-2.4-.309,6.89,6.89,0,0,0,.126,13.779,6.189,6.189,0,0,0,2.168-.368c.177-.077.292-.127.292-.273v-3.716c0-.13-.042-.191-.2-.16a9.9,9.9,0,0,1-1.539.146,3.591,3.591,0,0,1-.409-.021,2.572,2.572,0,0,1-2.543-2.573,2.515,2.515,0,0,1,2.555-2.539,3.015,3.015,0,0,1,.369-.02" transform="translate(-993.303 -579.642)"/><path class="a" d="M871.262,588.74a7.383,7.383,0,0,1,1.591.233c.127.031.171-.055.171-.165l-.005-3.705c0-.156-.01-.227-.177-.308a6.657,6.657,0,0,0-2.4-.309,6.89,6.89,0,0,0,.128,13.779,6.186,6.186,0,0,0,2.166-.368c.177-.077.292-.127.292-.273v-3.716c0-.13-.042-.191-.2-.16a9.911,9.911,0,0,1-1.54.146,3.632,3.632,0,0,1-.409-.021,2.572,2.572,0,0,1-2.542-2.573,2.515,2.515,0,0,1,2.553-2.539,3.071,3.071,0,0,1,.371-.02" transform="translate(-854.421 -579.642)"/><path class="a" d="M909.819,590.257a.318.318,0,0,0,.2-.323c0-.022,0-.049,0-.075a6,6,0,0,0-6.208-5.4,6.882,6.882,0,0,0,0,13.763,9.581,9.581,0,0,0,4.421-1.015.835.835,0,0,0,.394-.693V593.8a.523.523,0,0,0-.034-.209.126.126,0,0,0-.127-.09.334.334,0,0,0-.142.036,8.978,8.978,0,0,1-3.577.958,5.044,5.044,0,0,1-.682-.043,2.99,2.99,0,0,1-1.073-.379.3.3,0,0,1-.159-.253.363.363,0,0,1,.251-.312c1.522-.7,6.57-3.168,6.742-3.25m-8.042.6-.022-.047.021.047a.25.25,0,0,1-.1.02h0a.275.275,0,0,1-.264-.288v-.032a2.622,2.622,0,0,1,1.408-2.188,2.714,2.714,0,0,1,1.248-.3,1.984,1.984,0,0,1,1.488.594.212.212,0,0,1,.061.144.217.217,0,0,1-.116.182c-.133.083-3.65,1.839-3.722,1.87" transform="translate(-873.124 -579.629)"/><path class="a" d="M953.683,590.257a.319.319,0,0,0,.195-.325c0-.021,0-.047,0-.073a6.006,6.006,0,0,0-6.207-5.4,6.882,6.882,0,0,0,0,13.763,9.587,9.587,0,0,0,4.421-1.015.839.839,0,0,0,.395-.693V593.8a.522.522,0,0,0-.033-.209.129.129,0,0,0-.128-.09.334.334,0,0,0-.141.036,8.983,8.983,0,0,1-3.577.958,5.189,5.189,0,0,1-.681-.042,3,3,0,0,1-1.073-.38.3.3,0,0,1-.16-.253.362.362,0,0,1,.251-.311c1.523-.7,6.57-3.169,6.742-3.251m-8.042.6a.262.262,0,0,1-.1.019h0a.274.274,0,0,1-.264-.288c0-.009,0-.019,0-.032a2.628,2.628,0,0,1,1.41-2.188,2.721,2.721,0,0,1,1.248-.3,1.99,1.99,0,0,1,1.489.594.2.2,0,0,1-.057.326c-.131.083-3.65,1.84-3.722,1.871" transform="translate(-897.784 -579.629)"/></svg>